<svg width="123" height="124" viewBox="0 0 123 124" fill="none" xmlns="http://www.w3.org/2000/svg">
<path d="M61.3502 123.181C95.2329 123.181 122.7 95.6308 122.7 61.646C122.7 27.6612 95.2329 0.111084 61.3502 0.111084C27.4674 0.111084 0 27.6612 0 61.646C0 95.6308 27.4674 123.181 61.3502 123.181Z" fill="#80B7A2"/>
<path d="M61.3502 88.1723C61.9446 88.1723 62.4265 87.689 62.4265 87.0927C62.4265 86.4965 61.9446 86.0132 61.3502 86.0132C60.7557 86.0132 60.2738 86.4965 60.2738 87.0927C60.2738 87.689 60.7557 88.1723 61.3502 88.1723Z" fill="white"/>
<path d="M72.1133 75.2176C83.4916 69.2029 87.9506 55.1686 81.954 43.7561C75.9573 32.3436 61.9652 27.8712 50.587 33.8859C39.2087 39.9005 34.7497 53.9348 40.7464 65.3473C42.899 69.5113 46.4355 73.0584 50.587 75.2176C37.6711 76.1429 31.0595 78.9189 31.0595 83.3914C31.0595 90.4856 47.5118 92.0278 61.3502 92.0278C75.1885 92.0278 91.6408 90.4856 91.6408 83.3914C91.7946 79.0731 85.1829 76.2971 72.1133 75.2176ZM40.1313 54.5517C40.1313 42.8308 49.6644 33.269 61.3502 33.269C73.0359 33.269 82.569 42.8308 82.569 54.5517C82.569 62.8797 77.6487 70.4366 70.1145 73.9838C69.9607 73.9838 69.9607 74.138 69.8069 74.138L61.9652 82.0033C61.6577 82.3118 61.0427 82.3118 60.7351 82.0033L57.9674 79.2273L52.8934 74.138C52.7396 73.9838 52.7396 73.9838 52.5859 73.9838C45.0516 70.4366 40.1313 62.8797 40.1313 54.5517ZM61.3502 90.0229C43.8215 90.0229 33.0584 87.5554 33.0584 83.3914C33.0584 79.9985 40.2851 77.8393 52.8934 77.0682L54.8923 79.0731C48.5881 79.3816 40.1313 80.4611 40.1313 83.3914C40.1313 86.7843 50.8945 87.7096 57.1986 87.8638C57.8137 87.8638 58.275 87.4011 58.275 86.9385C58.275 86.3216 57.8137 85.8589 57.3524 85.8589C47.6655 85.5505 43.2065 84.1625 42.284 83.3914C43.2065 82.6202 47.5118 81.3865 56.8911 80.9238L59.3513 83.3914C59.9663 83.854 60.5814 84.1625 61.3502 84.1625C62.119 84.1625 62.8878 83.854 63.349 83.3914L65.8092 80.9238C75.1885 81.2322 79.4938 82.6202 80.4164 83.3914C79.4938 84.1625 75.0348 85.5505 65.3479 85.8589C64.7329 85.8589 64.2716 86.3216 64.4254 86.9385C64.4254 87.5554 64.8866 88.018 65.5017 87.8638C71.9596 87.5554 82.569 86.7843 82.569 83.3914C82.569 80.4611 74.1122 79.3816 67.8081 79.0731L69.8069 77.0682C82.4153 77.8393 89.642 80.1527 89.642 83.3914C89.642 87.5554 78.8788 90.0229 61.3502 90.0229Z" fill="white"/>
<path d="M80.5701 54.5518C80.5701 43.9104 71.9596 35.2739 61.3502 35.2739C50.7407 35.2739 42.1302 43.9104 42.1302 54.5518C42.1302 65.1931 50.7407 73.8296 61.3502 73.8296C71.9596 73.8296 80.5701 65.1931 80.5701 54.5518ZM44.2828 54.5518C44.2828 44.99 51.9708 37.2788 61.5039 37.2788C71.037 37.2788 78.725 44.99 78.725 54.5518C78.725 64.1136 71.037 71.8247 61.5039 71.8247C51.9708 71.8247 44.2828 64.1136 44.2828 54.5518Z" fill="white"/>
<path d="M66.2705 67.8148C68.2693 67.8148 69.6532 66.4268 70.2682 64.1135C70.5757 62.8797 70.422 61.6459 70.5757 60.4121C71.037 58.0988 73.0359 56.4023 73.8047 54.2432C75.1885 50.5419 73.8047 46.5321 70.422 44.373C68.1156 42.9849 64.4253 42.6765 61.1964 45.9152C57.9674 42.6765 54.2772 42.9849 51.9708 44.373C48.5881 46.3778 47.2042 50.5419 48.5881 54.2432C49.3569 56.5565 51.202 58.253 51.817 60.4121C52.1246 61.6459 51.817 62.8797 52.1246 64.1135C52.7396 66.581 54.1235 67.8148 56.1223 67.8148C59.1975 67.8148 59.9663 64.7304 60.5814 62.7255C60.7351 62.1086 60.8889 61.4917 61.1964 60.8748C61.5039 61.4917 61.6577 62.1086 61.8114 62.7255C62.5802 64.7304 63.349 67.8148 66.2705 67.8148ZM58.89 62.2628C58.2749 64.4219 57.8137 65.8099 56.4298 65.8099C55.1998 65.8099 54.5847 64.5761 54.431 63.4966C54.1234 62.417 54.2772 61.1832 54.1234 59.9494C53.6622 57.4819 51.6633 55.7854 50.8945 53.4721C49.8182 50.6961 50.8945 47.6116 53.3546 46.0694C56.8911 43.4476 60.8889 48.2285 63.6565 50.3876C64.1178 50.6961 64.7329 50.5419 65.0404 50.0792C65.3479 49.6165 65.1942 48.9996 64.8866 48.6912C64.2716 48.2285 63.6566 47.7659 63.0415 47.149C65.1942 45.1441 67.6543 44.6814 69.8069 45.9152C72.2671 47.4574 73.3434 50.5419 72.2671 53.3179C71.3445 55.6312 69.4994 57.3277 69.0381 59.7952C68.7306 61.029 68.8844 62.2628 68.7306 63.3424C68.4231 64.4219 67.9618 65.6557 66.7317 65.6557C65.3479 65.6557 64.8866 64.2677 64.2716 62.1086C63.8103 60.4121 63.349 58.5614 61.6577 58.5614C59.6588 58.7157 59.1975 60.5663 58.89 62.2628Z" fill="white"/>
</svg>
