<svg width="123" height="124" viewBox="0 0 123 124" fill="none" xmlns="http://www.w3.org/2000/svg">
<path d="M61.3502 123.181C95.2329 123.181 122.7 95.6308 122.7 61.646C122.7 27.6612 95.2329 0.111084 61.3502 0.111084C27.4674 0.111084 0 27.6612 0 61.646C0 95.6308 27.4674 123.181 61.3502 123.181Z" fill="#80B7A2"/>
<path d="M57.66 41.4429C57.66 43.4478 59.1976 44.99 61.1964 44.99C63.1953 44.99 64.7329 43.4478 64.7329 41.4429C64.7329 39.438 63.1953 37.8958 61.1964 37.8958C59.1976 37.8958 57.66 39.438 57.66 41.4429ZM62.4265 41.4429C62.4265 42.0598 61.9652 42.6767 61.1964 42.6767C60.5814 42.6767 59.9664 42.214 59.9664 41.4429C59.9664 40.826 60.4276 40.2091 61.1964 40.2091C61.9652 40.2091 62.4265 40.826 62.4265 41.4429Z" fill="white"/>
<path d="M91.1796 64.8847C90.7183 64.422 90.1033 64.1136 89.4882 63.9594C87.1818 63.034 84.4142 63.6509 82.7228 65.3474C80.8777 63.6509 78.11 63.1882 75.8036 64.1136C73.4972 65.0389 71.8058 67.3523 71.8058 69.8198C71.8058 71.3621 72.2671 72.7501 72.7284 74.1381C73.651 76.9141 74.7273 79.5359 75.6498 82.3119C75.9574 83.083 76.2649 84.0083 76.8799 84.7794C78.2638 86.4759 80.8777 85.859 81.8002 84.1625C82.2615 83.2372 82.4153 82.1576 82.569 81.0781C83.0303 82.1576 83.0303 83.5457 83.6454 84.6252C84.7217 86.1674 86.8743 86.4759 88.2582 85.2421C89.027 84.6252 89.3345 83.6999 89.642 82.7745C90.5646 80.1528 91.6409 77.3767 92.5634 74.6007C93.0247 73.0585 93.6398 71.6705 93.486 69.974C93.486 67.8149 92.5634 65.9643 91.1796 64.8847ZM91.0258 71.3621L87.0281 82.6203C86.8743 83.083 86.4131 83.083 86.2593 83.083C86.1055 83.083 85.6442 82.9288 85.6442 82.4661L84.2604 76.6056C84.1066 75.8345 83.4916 75.3718 82.7228 75.3718C81.954 75.3718 81.339 75.8345 81.1852 76.6056L79.8014 82.4661C79.6476 82.9288 79.3401 83.083 79.1863 83.083C79.0326 83.083 78.5713 83.083 78.4175 82.6203L74.4198 71.3621C73.651 69.3572 74.5735 67.6607 75.8036 66.8896C77.3412 65.81 79.1863 65.81 80.7239 66.8896C79.8014 67.5065 78.7251 67.9692 77.6487 67.9692C77.0337 67.9692 76.5724 68.586 76.5724 69.2029C76.5724 69.8198 77.1875 70.2825 77.8025 70.2825C80.5702 70.1283 82.7228 68.1234 85.0292 66.7354C86.8743 65.5016 88.7194 65.9643 89.7958 66.8896C90.8721 67.6607 91.7946 69.3572 91.0258 71.3621Z" fill="white"/>
<path d="M82.7228 57.0193C74.881 57.0193 68.2694 62.4171 66.578 69.8198C65.963 69.5113 65.348 69.3571 64.7329 69.2029L65.6554 64.1135C66.4242 63.3424 67.1931 62.5713 67.6544 61.646C69.4995 58.7157 70.5758 55.4771 70.8833 52.2384C72.8822 52.2384 74.4198 50.6962 74.4198 48.6913C74.4198 46.8406 72.8822 45.2984 71.037 45.1441H71.9596C73.9585 45.1441 75.4961 43.6019 75.4961 41.597C75.4961 40.5175 75.0348 39.4379 74.1122 38.821C74.7273 33.5774 70.7295 29.105 70.5758 28.9507C67.8081 25.7121 64.7329 24.1698 61.1964 24.0156C55.8148 23.8614 51.202 27.4085 49.972 28.6423C45.5129 28.9507 41.8227 32.6521 41.9764 37.433C41.9764 37.433 41.9764 37.7414 42.1302 38.3583C40.7464 38.821 39.67 40.209 39.67 41.7512C39.67 43.7561 41.2077 45.2984 43.2065 45.2984H44.4366C42.4377 45.2984 40.9001 46.8406 40.9001 48.8455C40.9001 50.8504 42.4377 52.3926 44.4366 52.3926H44.7441C45.0517 55.6313 46.128 58.87 47.8193 61.646C48.2806 62.4171 48.8956 63.1882 49.6644 63.9593L49.8182 64.8846C47.6656 65.6558 45.9742 67.3522 45.0516 69.5113C37.8249 70.8993 32.4434 77.2225 32.4434 84.7794V89.5603C32.4434 90.1772 32.9046 90.7941 33.6734 90.7941C34.4422 90.7941 34.9035 90.3314 34.9035 89.5603V84.7794C34.9035 78.7647 39.055 73.6753 44.4366 72.1331C44.4366 72.2873 44.4366 72.5958 44.4366 72.75V78.7647C43.0528 79.2274 41.9764 80.6154 41.9764 82.1576C41.9764 84.1625 43.5141 85.7047 45.5129 85.7047C47.5118 85.7047 49.0494 84.1625 49.0494 82.1576C49.0494 80.6154 47.9731 79.2274 46.5892 78.7647V72.4416C46.5892 72.1331 46.5892 71.6705 46.743 71.362C47.0505 71.362 47.5118 71.362 47.8193 71.362H49.3569L56.2761 89.8687C56.4299 90.3314 56.8911 90.6399 57.3524 90.6399C57.8137 90.6399 58.275 90.3314 58.4288 89.8687L64.7329 71.8247C65.0404 71.9789 65.3479 72.1331 65.6554 72.2873C65.6554 72.75 65.5017 73.3669 65.5017 73.8296C65.5017 83.0829 73.0359 90.6399 82.2615 90.6399C91.4871 90.6399 99.0213 83.0829 99.0213 73.8296C99.0213 64.5762 91.9484 57.0193 82.7228 57.0193ZM45.6667 83.3914C45.0516 83.3914 44.4366 82.9287 44.4366 82.1576C44.4366 81.5407 44.8979 80.9238 45.6667 80.9238C46.2817 80.9238 46.8968 81.3865 46.8968 82.1576C46.8968 82.7745 46.4355 83.3914 45.6667 83.3914ZM71.9596 48.6913C71.9596 49.3081 71.4984 49.7708 70.8833 49.925V49.7708V47.6117C71.4984 47.6117 71.9596 48.0744 71.9596 48.6913ZM73.1897 41.4428C73.1897 42.0597 72.7284 42.6766 71.9596 42.6766H68.2694C68.2694 42.2139 68.4231 41.9055 68.4231 41.4428C68.4231 40.9801 68.4231 40.6717 68.2694 40.209H71.9596C72.5746 40.209 73.1897 40.8259 73.1897 41.4428ZM50.587 30.8014C50.8945 30.8014 51.202 30.6472 51.3558 30.493C51.3558 30.493 55.8148 26.0205 61.1964 26.329C63.9641 26.4832 66.578 27.8712 68.8844 30.493C68.8844 30.493 72.1134 34.0401 71.9596 37.8957H67.5006C66.2705 35.7365 63.9641 34.3485 61.3502 34.3485C58.7363 34.3485 56.4299 35.7365 55.1998 37.8957C53.0472 36.5077 51.9708 34.1943 51.9708 34.1943C51.6633 33.5774 51.0483 33.269 50.4332 33.5774C48.2806 34.3485 46.5892 35.8908 45.6667 38.0499H44.5904C44.4366 37.5872 44.4366 37.1246 44.4366 37.1246C44.4366 33.5774 47.2043 30.8014 50.587 30.8014ZM65.963 41.4428C65.963 44.0646 63.8103 46.2237 61.1964 46.2237C58.5825 46.2237 56.4299 44.0646 56.4299 41.4428C56.4299 38.821 58.5825 36.6619 61.1964 36.6619C63.8103 36.6619 65.963 38.821 65.963 41.4428ZM51.5096 37.8957H48.2806C48.7419 37.1246 49.3569 36.6619 50.1257 36.1992C50.587 36.6619 51.0483 37.2788 51.5096 37.8957ZM44.5904 49.7708C43.9753 49.7708 43.3603 49.3082 43.3603 48.537C43.3603 47.9201 43.8216 47.3033 44.5904 47.3033H44.7441V49.6166V49.7708H44.5904ZM43.3603 42.6766C42.7452 42.6766 42.1302 42.2139 42.1302 41.4428C42.1302 40.8259 42.5915 40.209 43.3603 40.209H54.2772C54.2772 40.6717 54.1235 40.9801 54.1235 41.4428C54.1235 41.9055 54.1235 42.2139 54.2772 42.6766H43.3603ZM48.1268 69.0487C48.7419 68.2775 49.5107 67.6607 50.4332 67.198L50.7408 69.0487H48.1268ZM57.66 86.0132L52.1246 71.362H54.1235C55.3535 71.6705 56.4299 71.8247 57.8137 71.8247C59.0438 71.8247 60.2739 71.6705 61.504 71.362C61.9652 71.362 62.2727 71.362 62.734 71.362L57.66 86.0132ZM62.2728 68.586C60.8889 69.0487 59.3513 69.3571 57.66 69.3571C55.9686 69.3571 54.431 69.0487 53.0472 68.4318L52.5859 65.6558C54.1235 66.4269 55.9686 66.8895 57.8137 66.8895C57.8137 66.8895 57.8137 66.8895 57.9675 66.8895C59.6588 66.8895 61.3502 66.4269 62.8878 65.81L62.2728 68.586ZM57.8137 64.5762C54.5848 64.5762 51.6633 62.8798 50.1257 60.258C48.1269 57.0193 47.2043 53.4722 47.2043 49.6166V44.9899H55.1998C56.4299 47.149 58.7363 48.537 61.3502 48.537C63.9641 48.537 66.2705 47.149 67.5006 44.9899H68.7306V49.6166C68.7306 53.4722 67.6543 57.1735 65.6554 60.4122C63.8103 63.034 61.0427 64.5762 57.8137 64.5762ZM82.7228 88.1723C74.881 88.1723 68.4231 81.6949 68.4231 73.8296C68.4231 65.9642 74.881 59.4869 82.7228 59.4869C90.5645 59.4869 97.0225 65.9642 97.0225 73.8296C97.0225 81.6949 90.5645 88.1723 82.7228 88.1723Z" fill="white"/>
</svg>
