<svg width="123" height="124" viewBox="0 0 123 124" fill="none" xmlns="http://www.w3.org/2000/svg">
<path d="M61.3502 123.181C95.2329 123.181 122.7 95.6308 122.7 61.646C122.7 27.6612 95.2329 0.111084 61.3502 0.111084C27.4674 0.111084 0 27.6612 0 61.646C0 95.6308 27.4674 123.181 61.3502 123.181Z" fill="#80B7A2"/>
<path d="M104.249 50.0792C103.634 49.3081 102.865 48.9996 101.789 48.9996C100.866 48.9996 99.9439 49.3081 99.1751 49.925L99.0213 50.0792L91.3333 57.1734H70.422V38.6667V38.5125V38.3583C69.4994 36.6618 70.1145 34.3485 71.9596 33.4231C73.4972 32.652 75.3423 32.9605 76.4186 34.3485L75.1886 35.1196C74.881 35.2738 74.7273 35.7365 74.7273 36.0449C74.7273 36.1991 74.7273 36.1991 74.881 36.3534L76.8799 39.592C77.0337 39.7463 77.1874 39.9005 77.495 40.0547H77.6487C77.8025 40.0547 77.8025 40.0547 77.9562 40.0547C77.9562 40.0547 78.11 40.0547 78.11 39.9005L85.9518 35.1196C86.2593 34.9654 86.413 34.5027 86.413 34.1942C86.413 34.04 86.413 34.04 86.2593 33.8858L84.2604 30.6471C84.2604 30.4929 84.1066 30.4929 84.1066 30.4929C83.7991 30.3387 83.4916 30.3387 83.1841 30.4929L82.1077 31.264C80.8777 29.4133 79.0326 28.0253 76.8799 27.4084C74.4198 26.6373 71.6521 26.9458 69.3457 28.1796C65.1942 30.3387 63.0415 35.1196 64.2716 39.4378V57.7903H59.5051C59.0438 57.7903 58.5825 58.253 58.5825 58.7157V66.581H46.743V63.3423C48.8956 62.8797 50.587 61.029 50.587 58.7157C50.587 58.253 50.1257 57.7903 49.6644 57.7903H46.743C46.5892 56.4023 45.9742 55.3228 45.2054 54.8601V49.4623C45.2054 48.8454 45.6667 48.3827 46.2817 48.3827C46.8968 48.3827 47.358 48.8454 47.358 49.4623V51.9299C47.358 52.3925 47.8193 52.8552 48.2806 52.8552C48.7419 52.8552 49.2031 52.3925 49.2031 51.9299V49.4623C49.2031 47.9201 47.9731 46.5321 46.2817 46.5321C44.7441 46.5321 43.3603 47.7658 43.3603 49.4623V54.8601C42.5915 55.3228 41.9764 56.4023 41.8227 57.7903C41.3614 57.7903 40.9001 58.253 40.9001 58.7157C40.9001 59.7952 41.3614 60.8748 41.9764 61.6459V66.581H39.8238C39.5163 66.581 39.2088 66.7353 39.055 67.0437L18.9125 84.6251C18.9125 84.6251 18.9125 84.6251 18.9125 84.7793C17.5286 86.1673 17.6824 88.6349 19.22 90.1771C19.9888 90.9482 21.2189 91.4109 22.1414 91.4109C23.064 91.4109 23.8328 91.1024 24.4478 90.4856C24.4478 90.4856 24.4478 90.4856 24.6016 90.4856L42.899 73.6753H46.2817C46.5892 75.6802 47.5118 78.302 50.2795 78.302H58.1212V90.0229H45.3592C41.3614 90.0229 40.2851 93.8785 40.2851 96.0376C40.2851 96.5002 40.7464 96.9629 41.2076 96.9629H88.2581C88.7194 96.9629 89.1807 96.5002 89.1807 96.0376C89.1807 94.0327 88.1044 90.0229 84.1066 90.0229H71.3446V78.302H79.1863C81.954 78.302 83.0303 75.5259 83.1841 73.6753C84.4141 73.3668 85.3367 72.5957 85.798 71.3619L103.48 55.0143C103.48 55.0143 103.48 55.0143 103.48 54.8601C105.018 53.4721 105.325 51.4672 104.249 50.0792ZM83.0303 32.0351L84.1066 33.7316L77.8025 37.5871L76.7262 35.8907L83.0303 32.0351ZM69.807 29.1049C71.8058 28.0253 73.9585 27.8711 75.9574 28.488C77.8025 28.9507 79.1863 30.1845 80.2626 31.5725L77.8025 33.1147C76.2649 31.1098 73.3434 30.3387 71.037 31.5725C68.4231 32.9605 67.5006 36.0449 68.5769 38.6667V50.3876H65.5017V38.5125C65.5017 38.3583 65.5017 38.204 65.3479 38.0498C64.7329 34.6569 66.4243 30.9556 69.807 29.1049ZM65.6555 53.3179V52.2383H68.7306V53.3179H65.6555ZM68.5769 55.1685V57.1734H65.5017V55.1685H68.5769ZM59.9663 58.8699H89.4882L81.954 65.8099H59.9663C59.9663 65.9641 59.9663 58.8699 59.9663 58.8699ZM43.8216 55.7854C43.9753 55.7854 44.2828 56.2481 44.4366 57.1734H43.2065C43.514 56.2481 43.8216 55.7854 43.8216 55.7854ZM48.1268 58.8699C47.8193 60.1037 46.5892 60.8748 45.3592 60.8748C44.1291 60.8748 42.899 59.9495 42.5915 58.8699H48.1268ZM44.4366 62.7255V65.9641H43.3603V62.417C43.8216 62.5712 44.1291 62.5712 44.4366 62.7255ZM42.5915 71.8246C42.4377 71.8246 42.4377 71.8246 42.5915 71.8246C42.4377 71.8246 42.284 71.8246 42.284 71.8246C42.284 71.8246 42.1302 71.8246 42.1302 71.9788C42.1302 71.9788 42.1302 71.9788 41.9764 71.9788L23.5253 89.0975C22.7565 89.8687 21.5264 89.7144 20.6038 88.7891C19.6813 87.8638 19.6813 86.63 20.2963 85.8589L39.9776 67.6606H79.0326C78.725 68.2775 78.4175 68.8944 78.4175 69.6655C78.4175 70.4366 78.5713 71.0535 79.0326 71.6704H42.5915V71.8246ZM84.1066 91.7193C86.413 91.7193 87.1818 93.7242 87.3356 94.958H42.1302C42.284 93.7242 43.0528 91.7193 45.3592 91.7193H84.1066ZM59.9663 89.8687V78.1477H69.6532V89.8687H59.9663ZM79.1863 76.2971H50.2795C48.7419 76.2971 48.2806 74.6006 48.1268 73.5211H81.1852C81.1852 74.6006 80.5702 76.2971 79.1863 76.2971ZM82.2615 71.8246C81.1852 71.8246 80.2626 70.8993 80.2626 69.8197C80.2626 68.7401 81.1852 67.8148 82.2615 67.8148C83.3378 67.8148 84.2604 68.7401 84.2604 69.8197C84.2604 70.8993 83.3378 71.8246 82.2615 71.8246ZM102.25 53.6263L85.798 68.7401C85.4905 67.8148 84.8754 66.8895 83.9529 66.4268L100.405 51.313C100.866 51.0045 101.328 50.8503 101.789 50.8503C102.25 50.8503 102.558 51.0045 102.865 51.313C103.327 51.7756 103.019 52.8552 102.25 53.6263Z" fill="white"/>
</svg>
