<svg width="123" height="124" viewBox="0 0 123 124" fill="none" xmlns="http://www.w3.org/2000/svg">
<path d="M61.3502 123.181C95.2329 123.181 122.7 95.6308 122.7 61.646C122.7 27.6612 95.2329 0.111084 61.3502 0.111084C27.4674 0.111084 0 27.6612 0 61.646C0 95.6308 27.4674 123.181 61.3502 123.181Z" fill="#80B7A2"/>
<path d="M58.1212 24.4783H49.972C47.2043 24.4783 44.8979 26.0205 43.6678 28.3338H42.4377C40.9001 28.3338 39.6701 29.4134 39.2088 30.8014H35.6723C35.211 30.8014 34.7498 31.2641 34.7498 31.7267C34.7498 32.1894 35.211 32.6521 35.6723 32.6521H39.2088C39.6701 34.0401 40.9001 35.1196 42.4377 35.1196H43.5141C44.5904 37.1245 46.5893 38.6668 49.0494 38.821V46.3779C47.8193 46.6863 46.8968 47.9201 46.8968 49.3081V94.8039C46.8968 98.6594 50.1257 101.898 53.9697 101.898C57.8137 101.898 61.0427 98.6594 61.0427 94.8039V49.3081C61.0427 47.9201 60.1201 46.8406 58.89 46.3779V38.6668C60.1201 38.3583 61.0427 37.1245 61.0427 35.7365V27.5627C61.1964 25.8663 59.8126 24.4783 58.1212 24.4783ZM42.4377 33.269C41.5152 33.269 40.9001 32.4979 40.9001 31.7267C40.9001 30.9556 41.6689 30.1845 42.4377 30.1845H42.899C42.7453 30.6472 42.7453 31.2641 42.7453 31.7267C42.7453 32.3436 42.7453 32.8063 42.899 33.269H42.4377ZM57.1987 46.2237H50.8945V38.821H57.1987V46.2237ZM59.3513 58.5615H48.7419V55.3228H59.3513V58.5615ZM53.9697 100.202C51.0483 100.202 48.5881 97.7341 48.5881 94.8039V60.258H59.1976V94.8039C59.3513 97.7341 57.0449 100.202 53.9697 100.202ZM59.3513 49.3081V53.6264H48.7419V49.3081C48.7419 48.537 49.3569 48.0744 49.972 48.0744H58.1212C58.7363 48.0744 59.3513 48.537 59.3513 49.3081ZM59.3513 35.7365C59.3513 36.5076 58.7363 36.9703 58.1212 36.9703H49.972H49.8182C46.8968 36.9703 44.4366 34.5028 44.4366 31.5725C44.4366 28.6423 46.8968 26.1747 49.8182 26.1747H57.9675C58.7363 26.1747 59.1976 26.7916 59.1976 27.4085L59.3513 35.7365Z" fill="white" stroke="white" stroke-width="0.25" stroke-miterlimit="10"/>
<path d="M79.1863 46.3779V42.5224C79.1863 40.8259 77.8025 39.4379 76.1111 39.4379H75.3423V37.2788C75.3423 36.6619 75.6498 36.1992 76.2649 36.045C78.725 35.1197 80.1089 32.4979 79.4938 30.0303C79.0326 28.1796 77.495 26.6374 75.6498 26.1747C74.1122 25.8663 72.4209 26.1747 71.1908 27.1001C69.9607 28.0254 69.1919 29.5676 69.1919 31.1099C69.1919 31.5725 69.6532 32.0352 70.1145 32.0352C70.5758 32.0352 71.037 31.5725 71.037 31.1099C71.037 30.0303 71.4983 29.105 72.2671 28.4881C73.0359 27.8712 74.1122 27.5628 75.1886 27.8712C76.4186 28.1796 77.495 29.105 77.6487 30.3388C78.11 32.3437 76.8799 33.8859 75.4961 34.3486C74.266 34.8112 73.3434 36.045 73.3434 37.2788V39.4379H72.5746C70.8833 39.4379 69.4995 40.8259 69.4995 42.5224V46.3779C68.1156 46.6864 67.1931 47.9202 67.1931 49.3082V94.8039C67.1931 98.6594 70.422 101.898 74.266 101.898C78.11 101.898 81.339 98.6594 81.339 94.8039V49.3082C81.4927 47.9202 80.5702 46.6864 79.1863 46.3779ZM69.0382 55.3228H79.6476V58.5615H69.0382V55.3228ZM71.3446 42.3681C71.3446 41.597 71.9596 41.1344 72.5746 41.1344H75.9574C76.7262 41.1344 77.1874 41.7512 77.1874 42.3681V46.2237H71.1908C71.3446 46.2237 71.3446 42.3681 71.3446 42.3681ZM70.422 48.0744H70.5758H78.2638H78.4175C79.1863 48.0744 79.6476 48.6913 79.6476 49.3082V53.6264H69.0382V49.3082C69.0382 48.5371 69.6532 48.0744 70.422 48.0744ZM74.4198 100.202C71.4983 100.202 69.0382 97.7341 69.0382 94.8039V60.258H79.6476V94.8039C79.8014 97.7341 77.3412 100.202 74.4198 100.202Z" fill="white" stroke="white" stroke-width="0.25" stroke-miterlimit="10"/>
<path d="M33.0584 31.7268C33.0584 31.2642 32.5971 30.8015 32.1358 30.8015H29.8294C29.3681 30.8015 28.9069 31.2642 28.9069 31.7268C28.9069 32.1895 29.3681 32.6522 29.8294 32.6522H32.1358C32.5971 32.6522 33.0584 32.1895 33.0584 31.7268Z" fill="white" stroke="white" stroke-width="0.25" stroke-miterlimit="10"/>
<path d="M33.0584 34.6569L31.367 36.3533C31.0595 36.6618 31.0595 37.2787 31.367 37.5871C31.5208 37.7413 31.8283 37.8955 31.982 37.8955C32.2896 37.8955 32.4433 37.7413 32.5971 37.5871L34.2884 35.8907C34.596 35.5822 34.596 34.9653 34.2884 34.6569C33.9809 34.3484 33.3659 34.3484 33.0584 34.6569Z" fill="white" stroke="white" stroke-width="0.25" stroke-miterlimit="10"/>
<path d="M32.5971 25.712C32.2896 25.4036 31.6745 25.4036 31.367 25.712C31.0595 26.0205 31.0595 26.6374 31.367 26.9458L33.0584 28.6423C33.2121 28.7965 33.5196 28.9507 33.6734 28.9507C33.9809 28.9507 34.1347 28.7965 34.2884 28.6423C34.596 28.3338 34.596 27.7169 34.2884 27.4085L32.5971 25.712Z" fill="white" stroke="white" stroke-width="0.25" stroke-miterlimit="10"/>
</svg>
